<?xml version="1.0" encoding="UTF-8"?>
<!DOCTYPE svg PUBLIC "-//W3C//DTD SVG 1.1//EN" "http://www.w3.org/Graphics/SVG/1.1/DTD/svg11.dtd">
<svg width="167mm" height="103mm" viewBox="0 0 16700 10300" version="1.1" xmlns="http://www.w3.org/2000/svg" xmlns:xlink="http://www.w3.org/1999/xlink" stroke-width="28.222" stroke-linejoin="round" xml:space="preserve">
 <path fill="rgb(255,255,255)" stroke="none" d="M 8337,10241 L -13,10241 -13,-13 16687,-13 16687,10241 8337,10241 Z"/>
 <path fill="none" stroke="rgb(179,179,179)" stroke-linejoin="round" d="M 8035,7659 L 2348,7659 2348,391 13722,391 13722,7659 8035,7659 Z"/>
 <path fill="none" stroke="rgb(179,179,179)" stroke-linejoin="round" d="M 13722,7658 L 2348,7658"/>
 <path fill="none" stroke="rgb(179,179,179)" stroke-linejoin="round" d="M 13722,6446 L 2348,6446"/>
 <path fill="none" stroke="rgb(179,179,179)" stroke-linejoin="round" d="M 13722,5235 L 2348,5235"/>
 <path fill="none" stroke="rgb(179,179,179)" stroke-linejoin="round" d="M 13722,4024 L 2348,4024"/>
 <path fill="none" stroke="rgb(179,179,179)" stroke-linejoin="round" d="M 13722,2813 L 2348,2813"/>
 <path fill="none" stroke="rgb(179,179,179)" stroke-linejoin="round" d="M 13722,1601 L 2348,1601"/>
 <path fill="none" stroke="rgb(179,179,179)" stroke-linejoin="round" d="M 13722,390 L 2348,390"/>
 <path fill="none" stroke="rgb(179,179,179)" stroke-linejoin="round" d="M 2348,7808 L 2348,7658"/>
 <path fill="none" stroke="rgb(179,179,179)" stroke-linejoin="round" d="M 2348,7808 L 2348,7658"/>
 <path fill="none" stroke="rgb(179,179,179)" stroke-linejoin="round" d="M 3485,7808 L 3485,7658"/>
 <path fill="none" stroke="rgb(179,179,179)" stroke-linejoin="round" d="M 3485,7808 L 3485,7658"/>
 <path fill="none" stroke="rgb(179,179,179)" stroke-linejoin="round" d="M 4623,7808 L 4623,7658"/>
 <path fill="none" stroke="rgb(179,179,179)" stroke-linejoin="round" d="M 4623,7808 L 4623,7658"/>
 <path fill="none" stroke="rgb(179,179,179)" stroke-linejoin="round" d="M 5760,7808 L 5760,7658"/>
 <path fill="none" stroke="rgb(179,179,179)" stroke-linejoin="round" d="M 5760,7808 L 5760,7658"/>
 <path fill="none" stroke="rgb(179,179,179)" stroke-linejoin="round" d="M 6898,7808 L 6898,7658"/>
 <path fill="none" stroke="rgb(179,179,179)" stroke-linejoin="round" d="M 6898,7808 L 6898,7658"/>
 <path fill="none" stroke="rgb(179,179,179)" stroke-linejoin="round" d="M 8035,7808 L 8035,7658"/>
 <path fill="none" stroke="rgb(179,179,179)" stroke-linejoin="round" d="M 8035,7808 L 8035,7658"/>
 <path fill="none" stroke="rgb(179,179,179)" stroke-linejoin="round" d="M 9172,7808 L 9172,7658"/>
 <path fill="none" stroke="rgb(179,179,179)" stroke-linejoin="round" d="M 9172,7808 L 9172,7658"/>
 <path fill="none" stroke="rgb(179,179,179)" stroke-linejoin="round" d="M 10309,7808 L 10309,7658"/>
 <path fill="none" stroke="rgb(179,179,179)" stroke-linejoin="round" d="M 10309,7808 L 10309,7658"/>
 <path fill="none" stroke="rgb(179,179,179)" stroke-linejoin="round" d="M 11447,7808 L 11447,7658"/>
 <path fill="none" stroke="rgb(179,179,179)" stroke-linejoin="round" d="M 11447,7808 L 11447,7658"/>
 <path fill="none" stroke="rgb(179,179,179)" stroke-linejoin="round" d="M 12584,7808 L 12584,7658"/>
 <path fill="none" stroke="rgb(179,179,179)" stroke-linejoin="round" d="M 12584,7808 L 12584,7658"/>
 <path fill="none" stroke="rgb(179,179,179)" stroke-linejoin="round" d="M 13722,7808 L 13722,7658"/>
 <path fill="none" stroke="rgb(179,179,179)" stroke-linejoin="round" d="M 13722,7808 L 13722,7658"/>
 <path fill="none" stroke="rgb(179,179,179)" stroke-linejoin="round" d="M 2348,7658 L 13722,7658"/>
 <path fill="none" stroke="rgb(179,179,179)" stroke-linejoin="round" d="M 2198,7658 L 2348,7658"/>
 <path fill="none" stroke="rgb(179,179,179)" stroke-linejoin="round" d="M 2198,7658 L 2348,7658"/>
 <path fill="none" stroke="rgb(179,179,179)" stroke-linejoin="round" d="M 2198,6446 L 2348,6446"/>
 <path fill="none" stroke="rgb(179,179,179)" stroke-linejoin="round" d="M 2198,6446 L 2348,6446"/>
 <path fill="none" stroke="rgb(179,179,179)" stroke-linejoin="round" d="M 2198,5235 L 2348,5235"/>
 <path fill="none" stroke="rgb(179,179,179)" stroke-linejoin="round" d="M 2198,5235 L 2348,5235"/>
 <path fill="none" stroke="rgb(179,179,179)" stroke-linejoin="round" d="M 2198,4024 L 2348,4024"/>
 <path fill="none" stroke="rgb(179,179,179)" stroke-linejoin="round" d="M 2198,4024 L 2348,4024"/>
 <path fill="none" stroke="rgb(179,179,179)" stroke-linejoin="round" d="M 2198,2813 L 2348,2813"/>
 <path fill="none" stroke="rgb(179,179,179)" stroke-linejoin="round" d="M 2198,2813 L 2348,2813"/>
 <path fill="none" stroke="rgb(179,179,179)" stroke-linejoin="round" d="M 2198,1601 L 2348,1601"/>
 <path fill="none" stroke="rgb(179,179,179)" stroke-linejoin="round" d="M 2198,1601 L 2348,1601"/>
 <path fill="none" stroke="rgb(179,179,179)" stroke-linejoin="round" d="M 2198,390 L 2348,390"/>
 <path fill="none" stroke="rgb(179,179,179)" stroke-linejoin="round" d="M 2198,390 L 2348,390"/>
 <path fill="none" stroke="rgb(179,179,179)" stroke-linejoin="round" d="M 2348,7658 L 2348,390"/>
 <path fill="none" stroke="rgb(0,69,134)" stroke-width="80" stroke-linejoin="round" d="M 2348,7287 L 2404,7274 2461,7262 2518,7248 2575,7232 2632,7215 2689,7195 2746,7172 2803,7146 2859,7116 2916,7081 2973,7042 3030,6997 3087,6946 3144,6888 3201,6824 3258,6752 3314,6672 3371,6584 3428,6487 3485,6381 3542,6264 3599,6139 3656,6006 3713,5866 3769,5720 3826,5568 3883,5413 3940,5254 3997,5094 4054,4931 4111,4768 4168,4606 4224,4445 4281,4287 4338,4132 4395,3982 4452,3837 4509,3698 4566,3566 4623,3442 4679,3328 4736,3222 4793,3124 4850,3034 4907,2952 4964,2876 5021,2806 5078,2742 5134,2684 5191,2630 5248,2581 5305,2536 5362,2495 5419,2456 5476,2420 5533,2386 5589,2354 5646,2323 5703,2293 5760,2262 5817,2232 5874,2202 5931,2171 5988,2140 6044,2109 6101,2078 6158,2047 6215,2016 6272,1985 6329,1954 6386,1924 6443,1893 6499,1863 6556,1833 6613,1803 6670,1774 6727,1745 6784,1717 6841,1689 6898,1662 6954,1635 7011,1608 7068,1583 7125,1558 7182,1534 7239,1510 7296,1487 7353,1466 7409,1444 7466,1424 7523,1405 7580,1387 7637,1369 7694,1353 7751,1338 7808,1324 7864,1311 7921,1299 7978,1288 8035,1279 8092,1271 8149,1264 8206,1258 8263,1253 8319,1250 8375,1248 8432,1246 8489,1246 8546,1247 8603,1248 8660,1251 8717,1254 8773,1258 8830,1263 8887,1269 8944,1275 9001,1283 9058,1290 9115,1299 9172,1308 9228,1317 9285,1327 9342,1338 9399,1348 9456,1359 9513,1370 9570,1381 9627,1391 9683,1402 9740,1412 9797,1422 9854,1431 9911,1440 9968,1449 10025,1456 10082,1463 10138,1469 10195,1474 10252,1477 10309,1480 10366,1481 10423,1481 10480,1480 10537,1478 10593,1476 10650,1472 10707,1467 10764,1462 10821,1456 10878,1450 10935,1443 10992,1435 11048,1428 11105,1420 11162,1412 11219,1404 11276,1396 11333,1388 11390,1381 11447,1373 11503,1366 11560,1359 11617,1353 11674,1347 11731,1341 11788,1336 11845,1331 11902,1327 11958,1323 12015,1320 12072,1317 12129,1315 12186,1313 12243,1311 12300,1310 12357,1310 12413,1311 12470,1311 12527,1313 12584,1315 12641,1318 12698,1321 12755,1325 12812,1330 12868,1335 12925,1340 12982,1346 13039,1352 13096,1359 13153,1366 13210,1373 13267,1381 13323,1389 13380,1397 13437,1405 13494,1414 13551,1422 13608,1431 13665,1440 13722,1448"/>
 <path fill="none" stroke="rgb(255,66,14)" stroke-width="80" stroke-linejoin="round" d="M 2348,7321 L 2404,7316 2461,7311 2518,7305 2575,7298 2632,7289 2689,7278 2746,7264 2803,7246 2859,7226 2916,7200 2973,7171 3030,7136 3087,7096 3144,7050 3201,6997 3258,6938 3314,6871 3371,6797 3428,6714 3485,6623 3542,6523 3599,6414 3656,6299 3713,6177 3769,6051 3826,5921 3883,5788 3940,5653 3997,5518 4054,5383 4111,5249 4168,5118 4224,4991 4281,4868 4338,4751 4395,4640 4452,4537 4509,4443 4566,4359 4623,4286 4679,4224 4736,4174 4793,4134 4850,4103 4907,4081 4964,4068 5021,4061 5078,4061 5134,4067 5191,4077 5248,4092 5305,4110 5362,4130 5419,4152 5476,4175 5533,4197 5589,4220 5646,4240 5703,4258 5760,4274 5817,4285 5874,4293 5931,4297 5988,4297 6044,4294 6101,4288 6158,4279 6215,4267 6272,4252 6329,4234 6386,4214 6443,4191 6499,4166 6556,4139 6613,4110 6670,4078 6727,4045 6784,4011 6841,3974 6898,3937 6954,3898 7011,3858 7068,3818 7125,3778 7182,3737 7239,3698 7296,3659 7353,3622 7409,3586 7466,3553 7523,3522 7580,3494 7637,3468 7694,3447 7751,3429 7808,3416 7864,3408 7921,3404 7978,3406 8035,3413 8092,3427 8149,3446 8206,3470 8263,3498 8319,3529 8375,3563 8432,3599 8489,3636 8546,3673 8603,3711 8660,3748 8717,3783 8773,3816 8830,3846 8887,3872 8944,3894 9001,3911 9058,3922 9115,3927 9172,3925 9228,3915 9285,3898 9342,3875 9399,3846 9456,3812 9513,3775 9570,3735 9627,3692 9683,3647 9740,3602 9797,3556 9854,3511 9911,3468 9968,3427 10025,3389 10082,3354 10138,3325 10195,3300 10252,3282 10309,3270 10366,3266 10423,3270 10480,3279 10537,3294 10593,3314 10650,3339 10707,3367 10764,3398 10821,3432 10878,3467 10935,3503 10992,3540 11048,3577 11105,3612 11162,3646 11219,3678 11276,3707 11333,3732 11390,3753 11447,3770 11503,3780 11560,3786 11617,3787 11674,3784 11731,3777 11788,3766 11845,3753 11902,3737 11958,3718 12015,3698 12072,3677 12129,3654 12186,3632 12243,3609 12300,3586 12357,3564 12413,3544 12470,3525 12527,3508 12584,3493 12641,3482 12698,3473 12755,3466 12812,3462 12868,3461 12925,3461 12982,3464 13039,3468 13096,3474 13153,3482 13210,3491 13267,3502 13323,3513 13380,3526 13437,3539 13494,3553 13551,3568 13608,3583 13665,3599 13722,3615"/>
 <text class="SVGTextShape" transform="rotate(-44.9 1836 8729)"><tspan class="TextParagraph"><tspan class="TextPosition" x="1836" y="8729"><tspan font-family="Liberation Sans, sans-serif" font-size="353px" font-weight="400" fill="rgb(0,0,0)" stroke="none" style="white-space: pre"> </tspan></tspan><tspan class="TextPosition" x="1904" y="8661"><tspan font-family="Liberation Sans, sans-serif" font-size="353px" font-weight="400" fill="rgb(0,0,0)" stroke="none" style="white-space: pre">1ms </tspan></tspan></tspan></text>
 <text class="SVGTextShape" transform="rotate(-44.9 2837 8864)"><tspan class="TextParagraph"><tspan class="TextPosition" x="2837" y="8864"><tspan font-family="Liberation Sans, sans-serif" font-size="353px" font-weight="400" fill="rgb(0,0,0)" stroke="none" style="white-space: pre"> </tspan></tspan><tspan class="TextPosition" x="2905" y="8796"><tspan font-family="Liberation Sans, sans-serif" font-size="353px" font-weight="400" fill="rgb(0,0,0)" stroke="none" style="white-space: pre">10ms </tspan></tspan></tspan></text>
 <text class="SVGTextShape" transform="rotate(-44.9 3975 8864)"><tspan class="TextParagraph"><tspan class="TextPosition" x="3975" y="8864"><tspan font-family="Liberation Sans, sans-serif" font-size="353px" font-weight="400" fill="rgb(0,0,0)" stroke="none" style="white-space: pre"> </tspan></tspan><tspan class="TextPosition" x="4043" y="8796"><tspan font-family="Liberation Sans, sans-serif" font-size="353px" font-weight="400" fill="rgb(0,0,0)" stroke="none" style="white-space: pre">50ms </tspan></tspan></tspan></text>
 <text class="SVGTextShape" transform="rotate(-44.9 4977 8999)"><tspan class="TextParagraph"><tspan class="TextPosition" x="4977" y="8999"><tspan font-family="Liberation Sans, sans-serif" font-size="353px" font-weight="400" fill="rgb(0,0,0)" stroke="none" style="white-space: pre"> </tspan></tspan><tspan class="TextPosition" x="5045" y="8931"><tspan font-family="Liberation Sans, sans-serif" font-size="353px" font-weight="400" fill="rgb(0,0,0)" stroke="none" style="white-space: pre">100ms </tspan></tspan></tspan></text>
 <text class="SVGTextShape" transform="rotate(-44.9 6115 8999)"><tspan class="TextParagraph"><tspan class="TextPosition" x="6115" y="8999"><tspan font-family="Liberation Sans, sans-serif" font-size="353px" font-weight="400" fill="rgb(0,0,0)" stroke="none" style="white-space: pre"> </tspan></tspan><tspan class="TextPosition" x="6183" y="8931"><tspan font-family="Liberation Sans, sans-serif" font-size="353px" font-weight="400" fill="rgb(0,0,0)" stroke="none" style="white-space: pre">200ms </tspan></tspan></tspan></text>
 <text class="SVGTextShape" transform="rotate(-44.9 7252 8999)"><tspan class="TextParagraph"><tspan class="TextPosition" x="7252" y="8999"><tspan font-family="Liberation Sans, sans-serif" font-size="353px" font-weight="400" fill="rgb(0,0,0)" stroke="none" style="white-space: pre"> </tspan></tspan><tspan class="TextPosition" x="7320" y="8931"><tspan font-family="Liberation Sans, sans-serif" font-size="353px" font-weight="400" fill="rgb(0,0,0)" stroke="none" style="white-space: pre">500ms </tspan></tspan></tspan></text>
 <text class="SVGTextShape" transform="rotate(-44.9 8862 8526)"><tspan class="TextParagraph"><tspan class="TextPosition" x="8862" y="8526"><tspan font-family="Liberation Sans, sans-serif" font-size="353px" font-weight="400" fill="rgb(0,0,0)" stroke="none" style="white-space: pre"> </tspan></tspan><tspan class="TextPosition" x="8930" y="8458"><tspan font-family="Liberation Sans, sans-serif" font-size="353px" font-weight="400" fill="rgb(0,0,0)" stroke="none" style="white-space: pre">1s </tspan></tspan></tspan></text>
 <text class="SVGTextShape" transform="rotate(-44.9 9864 8661)"><tspan class="TextParagraph"><tspan class="TextPosition" x="9864" y="8661"><tspan font-family="Liberation Sans, sans-serif" font-size="353px" font-weight="400" fill="rgb(0,0,0)" stroke="none" style="white-space: pre"> </tspan></tspan><tspan class="TextPosition" x="9932" y="8593"><tspan font-family="Liberation Sans, sans-serif" font-size="353px" font-weight="400" fill="rgb(0,0,0)" stroke="none" style="white-space: pre">10s </tspan></tspan></tspan></text>
 <text class="SVGTextShape" transform="rotate(-44.9 11002 8661)"><tspan class="TextParagraph"><tspan class="TextPosition" x="11002" y="8661"><tspan font-family="Liberation Sans, sans-serif" font-size="353px" font-weight="400" fill="rgb(0,0,0)" stroke="none" style="white-space: pre"> </tspan></tspan><tspan class="TextPosition" x="11070" y="8593"><tspan font-family="Liberation Sans, sans-serif" font-size="353px" font-weight="400" fill="rgb(0,0,0)" stroke="none" style="white-space: pre">30s </tspan></tspan></tspan></text>
 <text class="SVGTextShape" transform="rotate(-44.9 12194 8607)"><tspan class="TextParagraph"><tspan class="TextPosition" x="12194" y="8607"><tspan font-family="Liberation Sans, sans-serif" font-size="353px" font-weight="400" fill="rgb(0,0,0)" stroke="none" style="white-space: pre"> </tspan></tspan><tspan class="TextPosition" x="12262" y="8539"><tspan font-family="Liberation Sans, sans-serif" font-size="353px" font-weight="400" fill="rgb(0,0,0)" stroke="none" style="white-space: pre">1m </tspan></tspan></tspan></text>
 <text class="SVGTextShape" transform="rotate(-44.9 13332 8607)"><tspan class="TextParagraph"><tspan class="TextPosition" x="13332" y="8607"><tspan font-family="Liberation Sans, sans-serif" font-size="353px" font-weight="400" fill="rgb(0,0,0)" stroke="none" style="white-space: pre"> </tspan></tspan><tspan class="TextPosition" x="13400" y="8539"><tspan font-family="Liberation Sans, sans-serif" font-size="353px" font-weight="400" fill="rgb(0,0,0)" stroke="none" style="white-space: pre">2m </tspan></tspan></tspan></text>
 <text class="SVGTextShape"><tspan class="TextParagraph"><tspan class="TextPosition" x="1907" y="7779"><tspan font-family="Liberation Sans, sans-serif" font-size="353px" font-weight="400" fill="rgb(0,0,0)" stroke="none" style="white-space: pre">0</tspan></tspan></tspan></text>
 <text class="SVGTextShape"><tspan class="TextParagraph"><tspan class="TextPosition" x="1524" y="6567"><tspan font-family="Liberation Sans, sans-serif" font-size="353px" font-weight="400" fill="rgb(0,0,0)" stroke="none" style="white-space: pre">500</tspan></tspan></tspan></text>
 <text class="SVGTextShape"><tspan class="TextParagraph"><tspan class="TextPosition" x="1333" y="5356"><tspan font-family="Liberation Sans, sans-serif" font-size="353px" font-weight="400" fill="rgb(0,0,0)" stroke="none" style="white-space: pre">1000</tspan></tspan></tspan></text>
 <text class="SVGTextShape"><tspan class="TextParagraph"><tspan class="TextPosition" x="1333" y="4145"><tspan font-family="Liberation Sans, sans-serif" font-size="353px" font-weight="400" fill="rgb(0,0,0)" stroke="none" style="white-space: pre">1500</tspan></tspan></tspan></text>
 <text class="SVGTextShape"><tspan class="TextParagraph"><tspan class="TextPosition" x="1333" y="2934"><tspan font-family="Liberation Sans, sans-serif" font-size="353px" font-weight="400" fill="rgb(0,0,0)" stroke="none" style="white-space: pre">2000</tspan></tspan></tspan></text>
 <text class="SVGTextShape"><tspan class="TextParagraph"><tspan class="TextPosition" x="1333" y="1722"><tspan font-family="Liberation Sans, sans-serif" font-size="353px" font-weight="400" fill="rgb(0,0,0)" stroke="none" style="white-space: pre">2500</tspan></tspan></tspan></text>
 <text class="SVGTextShape"><tspan class="TextParagraph"><tspan class="TextPosition" x="1333" y="511"><tspan font-family="Liberation Sans, sans-serif" font-size="353px" font-weight="400" fill="rgb(0,0,0)" stroke="none" style="white-space: pre">3000</tspan></tspan></tspan></text>
 <path fill="none" stroke="rgb(0,69,134)" stroke-width="80" stroke-linejoin="round" d="M 14312,4864 L 15112,4864"/>
 <path fill="none" stroke="rgb(255,66,14)" stroke-width="80" stroke-linejoin="round" d="M 14312,5361 L 15112,5361"/>
 <text class="SVGTextShape"><tspan class="TextParagraph"><tspan class="TextPosition" x="15212" y="4984"><tspan font-family="Liberation Sans, sans-serif" font-size="353px" font-weight="400" fill="rgb(0,0,0)" stroke="none" style="white-space: pre">limits</tspan></tspan></tspan></text>
 <text class="SVGTextShape"><tspan class="TextParagraph"><tspan class="TextPosition" x="15212" y="5481"><tspan font-family="Liberation Sans, sans-serif" font-size="353px" font-weight="400" fill="rgb(0,0,0)" stroke="none" style="white-space: pre">Interest</tspan></tspan></tspan></text>
 <text class="SVGTextShape"><tspan class="TextParagraph"><tspan class="TextPosition" x="6689" y="9647"><tspan font-family="Liberation Sans, sans-serif" font-size="318px" font-weight="700" fill="rgb(0,0,0)" stroke="none" style="white-space: pre">Sync period</tspan></tspan></tspan></text>
 <text class="SVGTextShape" transform="rotate(-90 825 4995)"><tspan class="TextParagraph"><tspan class="TextPosition" x="825" y="4995"><tspan font-family="Liberation Sans, sans-serif" font-size="318px" font-weight="700" fill="rgb(0,0,0)" stroke="none" style="white-space: pre">rec/s</tspan></tspan></tspan></text>
</svg>